HIERARCHY
ROOT pelvis
{
  OFFSET 0 100 0
  CHANNELS 6 Xposition Yposition Zposition Zrotation Xrotation Yrotation
  JOINT pelvis_right_femur
  {
    OFFSET -10.78128 -3.44521 -0.5502486
    CHANNELS 3 Zrotation Xrotation Yrotation
    JOINT right_femur_tibia
    {
      OFFSET -0.8047443 -44.0398 -0.1307829
      CHANNELS 3 Zrotation Xrotation Yrotation
      JOINT right_tibia_foot
      {
        OFFSET 3.006224 -47.83518 -5
        CHANNELS 3 Zrotation Xrotation Yrotation
        End Site
        {
          OFFSET 0 -5 15
        }
      }
    }
  }
  JOINT pelvis_left_femur
  {
    OFFSET 10.78128 -3.44521 -0.5502486
    CHANNELS 3 Zrotation Xrotation Yrotation
    JOINT left_femur_tibia
    {
      OFFSET 0.8047443 -44.0398 -0.1307829
      CHANNELS 3 Zrotation Xrotation Yrotation
      JOINT left_tibia_foot
      {
        OFFSET -4.370144 -48.10324 -4.275266
        CHANNELS 3 Zrotation Xrotation Yrotation
        End Site
        {
          OFFSET 0 -5 15
        }
      }
    }
  }
  JOINT pelvis_spine1
  {
    OFFSET 0 6.468898 -3.129235
    CHANNELS 3 Zrotation Xrotation Yrotation
    JOINT spine1
    {
      OFFSET 0 23.15396 4.99043
      CHANNELS 3 Zrotation Xrotation Yrotation
      JOINT spine2
      {
        OFFSET 0 20.79997 -5.064912
        CHANNELS 3 Zrotation Xrotation Yrotation
        JOINT neck
        {
          OFFSET 0 14.38658 9.616178
          CHANNELS 3 Zrotation Xrotation Yrotation
          End Site
          {
            OFFSET 0 20 0
          }
        }
      }
      JOINT right_manubrium
      {
        OFFSET -5.722621 16.35077 3.967754
        CHANNELS 3 Zrotation Xrotation Yrotation
        JOINT right_clavicle
        {
          OFFSET -13.16364 1.694482 -4.693211
          CHANNELS 3 Zrotation Xrotation Yrotation
          JOINT right_humerus
          {
            OFFSET -28.5034 -0.3100689 -2.792744
            CHANNELS 3 Zrotation Xrotation Yrotation
            JOINT right_radius
            {
              OFFSET -25.15693 0.02248979 -1.271978
              CHANNELS 3 Zrotation Xrotation Yrotation
              End Site
              {
                OFFSET -15 0 0
              }
            }
          }
        }
      }
      JOINT left_manubrium
      {
        OFFSET 5.722621 16.35077 3.967754
        CHANNELS 3 Zrotation Xrotation Yrotation
        JOINT left_clavicle
        {
          OFFSET 13.16364 1.694482 -4.693211
          CHANNELS 3 Zrotation Xrotation Yrotation
          JOINT left_humerus
          {
            OFFSET 29.39168 -1.063119 -2.237045
            CHANNELS 3 Zrotation Xrotation Yrotation
            JOINT left_radius
            {
              OFFSET 24.59957 -0.9528479 0.9047498
              CHANNELS 3 Zrotation Xrotation Yrotation
              End Site
              {
                OFFSET 15 -0 -0
              }
            }
          }
        }
      }
    }
  }
}
MOTION
Frames: 21
Frame Time: 0.0416666666667
57.93366 99.89558 254.8313 3.900213 -8.478644 6.037628 -0.9657367 18.79989 6.891401 -0 26.3113 -0 5.407006 -12.4248 -1.454226 -2.64725 -19.37118 -6.601935 -0 26.50244 -0 -7.593756 -7.81504 18.51361 -1.592999 -0.8608246 9.089683 -1.97059 10.06022 -2.527712 2.497803 22.06397 4.069993 1.434296 -14.3827 6.313474 1.128047 -20.80602 10.9297 83.02856 20.32755 -8.153785 -0 0 25.02509 -22.76054 10.45247 12.15385 4.555648 -14.34307 -3.333615 -92.86032 23.83321 23.52136 0 0 -10.81874 -3.98147 5.548783 17.86578
59.7105 100.0964 261.168 4.119098 -8.610262 6.706796 -1.369109 16.83224 6.343741 -0 30.98602 -0 5.368192 -11.57953 -2.062674 -3.517592 -16.57111 -7.39905 -0 25.2283 -0 -7.309422 -8.57048 18.12294 -1.864634 -0.9418071 8.622664 -1.956532 9.814963 -2.669075 2.549055 22.26021 4.087054 1.275735 -14.30509 6.541095 1.180785 -20.21782 10.68226 83.6361 20.30576 -8.778107 -0 0 24.02665 -22.45555 10.40879 11.81073 4.480673 -14.25865 -3.419447 -92.14062 24.2665 22.52471 0 0 -10.74008 -3.917023 5.664503 17.84368
61.49176 100.5022 267.4057 4.345899 -8.724561 7.60453 -1.687993 14.01007 5.726725 -0 34.8488 -0 5.182521 -10.70676 -2.808171 -4.334314 -13.07318 -8.120602 -0 24.28769 -0 -7.032862 -9.437053 17.66207 -2.143296 -0.9804709 8.021632 -1.857423 9.594707 -2.943219 2.599628 22.50396 4.123053 1.125863 -14.20003 6.78903 1.24436 -19.46872 10.41342 84.40744 20.38898 -9.74848 -0 0 22.66289 -22.0363 10.40462 11.36901 4.453134 -14.38136 -3.549283 -91.1317 24.72682 20.99199 0 0 -11.08131 -3.72667 5.862418 17.64159
63.25748 101.0238 273.5033 4.543855 -8.791887 8.680783 -1.897557 10.39452 5.076917 -0 37.38398 -0 4.844049 -9.948172 -3.633109 -4.995595 -9.093609 -8.708544 -0 23.40434 -0 -6.781675 -10.41738 17.14382 -2.394206 -0.949123 7.288027 -1.679265 9.376518 -3.351917 2.650436 22.7811 4.173889 0.9844203 -14.0688 7.052709 1.26305 -18.61648 10.11714 85.29818 20.54872 -10.97629 -0 0 21.07884 -21.51882 10.42336 10.86077 4.493033 -14.70696 -3.711801 -89.86499 25.18496 18.95265 0 0 -11.85562 -3.407297 6.144623 17.24624
64.98791 101.5457 279.4379 4.690724 -8.796054 9.880816 -1.998173 6.131015 4.430666 -0 38.35874 -0 4.355034 -9.382267 -4.491617 -5.459394 -4.83179 -9.148858 -0 22.44501 -0 -6.570424 -11.49231 16.584 -2.596782 -0.8410681 6.444467 -1.433452 9.144931 -3.877732 2.703324 23.07624 4.23235 0.8523641 -13.91968 7.323769 1.209197 -17.7062 9.796666 86.26654 20.75786 -12.38046 -0 0 19.38035 -20.91987 10.45198 10.3082 4.606033 -15.21401 -3.891941 -88.39441 25.6081 16.48122 0 0 -13.02847 -2.965697 6.505212 16.66392
66.66516 101.9617 285.2126 4.781927 -8.730389 11.14867 -2.009619 1.480945 3.822385 -0 37.80581 -0 3.725697 -9.028866 -5.346942 -5.73036 -0.4869085 -9.454749 -0 21.45278 -0 -6.412633 -12.61456 16.00449 -2.745939 -0.6726084 5.54238 -1.137157 8.892025 -4.478293 2.762486 23.37106 4.285465 0.7332506 -13.77029 7.587306 1.08381 -16.77085 9.465274 87.26664 20.99092 -13.88208 -0 0 17.63244 -20.25593 10.48011 9.720901 4.783486 -15.86207 -4.067576 -86.80369 25.96611 13.71002 0 0 -14.51327 -2.419114 6.931981 15.92039
68.27586 102.2017 290.8627 4.826202 -8.592216 12.42693 -1.957935 -3.195188 3.282259 -0 35.93753 -0 2.972158 -8.868959 -6.166985 -5.839145 3.732912 -9.648641 -0 20.61198 -0 -6.321308 -13.71279 15.43306 -2.848612 -0.4772221 4.657206 -0.8115571 8.615498 -5.090861 2.834547 23.64436 4.314799 0.6332607 -13.64606 7.822352 0.9079037 -15.8355 9.143181 88.24517 21.22536 -15.40023 -0 0 15.87093 -19.54275 10.49875 9.098376 5.006904 -16.59585 -4.210119 -85.20063 26.24027 10.82058 0 0 -16.1836 -1.792838 7.40962 15.0555
69.81343 102.2387 296.4511 4.835254 -8.384802 13.65707 -1.861099 -7.541132 2.83228 -0 33.05038 -0 2.114635 -8.866179 -6.926089 -5.823752 7.641972 -9.752119 -0 20.1438 -0 -6.304416 -14.71158 14.89835 -2.916637 -0.2905631 3.862814 -0.4768769 8.318316 -5.653119 2.925566 23.87824 4.30313 0.5584846 -13.57085 8.008985 0.7089397 -14.92049 8.850378 89.15175 21.44566 -16.86111 -0 0 14.11778 -18.79568 10.50083 8.43864 5.254831 -17.35798 -4.293945 -83.68997 26.42936 7.998321 0 0 -17.9057 -1.11496 7.922417 14.11371
71.27819 102.0816 302.0529 4.814989 -8.125564 14.78236 -1.719368 -11.29381 2.488276 -0 29.47384 -0 1.177147 -8.982682 -7.606372 -5.715965 11.09934 -9.783321 -0 20.22151 -0 -6.36075 -15.54363 14.42974 -2.958051 -0.1362478 3.206809 -0.1485545 8.010216 -6.122333 3.037279 24.06606 4.24156 0.5118435 -13.55722 8.135392 0.5105579 -14.0464 8.601487 89.94963 21.64554 -18.20326 -0 0 12.39908 -18.03165 10.48232 7.748748 5.506167 -18.09731 -4.306201 -82.35444 26.54791 5.396812 0 0 -19.55845 -0.4138809 8.454983 13.13936
72.67633 101.7672 307.7368 4.764663 -7.856013 15.75212 -1.510248 -14.26367 2.270416 -0 25.60369 -0 0.1899856 -9.183744 -8.191914 -5.535747 13.97754 -9.758291 -0 20.98379 -0 -6.480031 -16.13385 14.0694 -2.970647 -0.02213016 2.707799 0.1617599 7.71103 -6.475963 3.165341 24.21665 4.130963 0.4922792 -13.60406 8.198296 0.332294 -13.2426 8.40742 90.61255 21.82663 -19.36299 -0 0 10.7626 -17.27294 10.4422 7.052372 5.735709 -18.76093 -4.248989 -81.26792 26.62174 3.15471 0 0 -21.01312 0.2764329 8.990764 12.18393
74.01793 101.3597 313.5494 4.680568 -7.644687 16.52534 -1.189202 -16.28007 2.210214 -0 21.938 -0 -0.8085582 -9.437122 -8.662459 -5.291351 16.12539 -9.692291 -0 22.57654 -0 -6.645082 -16.38261 13.88177 -2.940365 0.05675927 2.364239 0.4437093 7.45197 -6.703824 3.299758 24.35383 3.979807 0.4955301 -13.69914 8.200089 0.1927739 -12.55236 8.278687 91.11661 21.99608 -20.25977 -0 0 9.285426 -16.54938 10.38211 6.39135 5.909491 -19.28485 -4.136744 -80.51343 26.68507 1.424143 0 0 -22.11001 0.9111456 9.511384 11.31342
75.31405 100.9481 319.5087 4.560316 -7.566052 17.07173 -0.7104678 -17.2038 2.336442 -0 18.97381 -0 -1.778529 -9.716131 -8.996865 -4.984692 17.39503 -9.598051 -0 25.11627 -0 -6.836448 -16.19276 13.93583 -2.849113 0.1121938 2.163515 0.6883927 7.266471 -6.803889 3.428414 24.50675 3.800269 0.5158 -13.82529 8.146549 0.1073375 -12.02253 8.223822 91.44113 22.16321 -20.81207 -0 0 8.053995 -15.89306 10.30576 5.814316 5.992489 -19.60689 -3.989896 -80.16805 26.77274 0.3468433 0 0 -22.69061 1.442961 10.00043 10.59552
76.57338 100.6334 325.6079 4.405632 -7.664815 17.3712 -0.06315634 -16.98428 2.645557 -0 17.01376 -0 -2.688626 -10.00602 -9.181893 -4.620704 17.70222 -9.482669 -0 28.58318 -0 -7.03719 -15.52654 14.27076 -2.68872 0.1567381 2.089752 0.8896848 7.174591 -6.78092 3.541595 24.69535 3.604678 0.5475863 -13.96777 8.045889 0.08119262 -11.68591 8.244889 91.57477 22.33441 -20.96894 -0 0 7.132562 -15.33155 10.21696 5.361255 5.965198 -19.69307 -3.826603 -80.27028 26.9056 -0.0005699328 0 0 -22.66249 1.838901 10.44823 10.07463
77.8006 100.504 331.8205 4.224353 -7.935861 17.41605 0.7063401 -15.67558 3.083577 -0 16.06424 -0 -3.518235 -10.30841 -9.213008 -4.215549 17.03192 -9.347511 -0 32.72305 -0 -7.229494 -14.44001 14.87997 -2.470939 0.2024908 2.130055 1.042784 7.174567 -6.642958 3.632969 24.92286 3.405521 0.5863603 -14.11769 7.909126 0.1045222 -11.55893 8.335884 91.51353 22.50923 -20.71513 -0 0 6.55961 -14.89237 10.1163 5.064174 5.833734 -19.54891 -3.65854 -80.81204 27.0804 0.377874 0 0 -22.02232 2.086322 10.85174 9.762177
78.99683 100.6052 338.1012 4.033386 -8.3232 17.21748 1.497195 -13.41371 3.550512 -0 15.84083 -0 -4.252583 -10.64254 -9.088789 -3.800226 15.40115 -9.191171 -0 36.99806 -0 -7.38366 -13.08657 15.71479 -2.230727 0.263045 2.278036 1.141369 7.242771 -6.397018 3.697775 25.17603 3.217688 0.6282958 -14.2717 7.750936 0.1510287 -11.651 8.483762 91.25313 22.67886 -20.05486 -0 0 6.365274 -14.61355 9.998435 4.958612 5.630778 -19.21498 -3.491572 -81.74948 27.27 1.416685 0 0 -20.8391 2.188452 11.21157 9.642137
80.16199 100.9176 344.3885 3.857413 -8.739765 16.81019 2.189271 -10.38281 3.933307 -0 15.88577 -0 -4.880224 -11.03708 -8.809138 -3.413496 12.84396 -9.013551 -0 40.6982 -0 -7.456581 -11.67554 16.70006 -2.017082 0.3521776 2.531802 1.178108 7.34221 -6.04871 3.731922 25.43143 3.057745 0.6702322 -14.43028 7.588104 0.1844994 -11.968 8.671185 90.78946 22.82768 -19.00309 -0 0 6.575412 -14.54008 9.85336 5.08269 5.405149 -18.75217 -3.328254 -83.01665 27.43291 3.013878 0 0 -19.22383 2.15869 11.5298 9.6817
81.29836 101.3636 350.6145 3.718636 -9.105312 16.24731 2.697115 -6.778481 4.153264 -0 15.79099 -0 -5.395412 -11.50935 -8.379098 -3.084699 9.43912 -8.819474 -0 43.22333 -0 -7.40969 -10.38876 17.75805 -1.870793 0.4770338 2.885702 1.14926 7.438668 -5.606956 3.733086 25.66601 2.93935 0.7103772 -14.59625 7.435201 0.1735644 -12.50501 8.880272 90.13098 22.93736 -17.5925 -0 0 7.193409 -14.70224 9.671512 5.458685 5.201161 -18.21959 -3.169846 -84.53897 27.5276 5.053753 0 0 -17.29532 2.017298 11.80936 9.843117
82.41459 101.8362 356.7207 3.624892 -9.369225 15.58802 2.994131 -2.794897 4.183663 -0 15.35982 -0 -5.800316 -12.04372 -7.810447 -2.822992 5.351152 -8.620626 -0 44.25542 -0 -7.227517 -9.328639 18.82136 -1.80782 0.6309571 3.321283 1.05804 7.51136 -5.08966 3.701503 25.86289 2.871525 0.7493475 -14.77551 7.302823 0.09990278 -13.23929 9.092933 89.31096 22.99016 -15.88465 -0 0 8.184322 -15.10158 9.447018 6.080631 5.045803 -17.66165 -3.016838 -86.2369 27.52138 7.416521 0 0 -15.16364 1.7923 12.05402 10.08883
83.52888 102.2333 362.6751 3.561913 -9.506797 14.88583 3.100246 1.35673 4.033548 -0 14.64009 -0 -6.105437 -12.57715 -7.119097 -2.618882 0.8645607 -8.435353 -0 43.72592 -0 -6.923979 -8.522564 19.82754 -1.81587 0.7892013 3.800855 0.9147054 7.553382 -4.527669 3.639488 26.00941 2.861674 0.7911533 -14.98007 7.199846 -0.04487558 -14.12828 9.287125 88.39284 22.9706 -13.97836 -0 0 9.471712 -15.71345 9.177677 6.916534 4.949866 -17.10966 -2.868436 -88.01737 27.39233 9.972512 0 0 -12.93663 1.524035 12.26911 10.37809
84.6696 102.4833 368.485 3.495428 -9.508629 14.18239 3.05989 5.442655 3.72643 -0 13.86875 -0 -6.328947 -13.00419 -6.322781 -2.452677 -3.633029 -8.284795 -0 41.72638 -0 -6.537092 -7.948737 20.71461 -1.860824 0.9123433 4.269834 0.7344026 7.568132 -3.962831 3.550684 26.09479 2.917559 0.8428848 -15.22788 7.135078 -0.2641704 -15.11413 9.436183 87.46339 22.86885 -12.00387 -0 0 10.94735 -16.49608 8.864516 7.91698 4.913399 -16.58693 -2.722705 -89.77253 27.13152 12.58258 0 0 -10.72465 1.264355 12.46174 10.66566
85.87095 102.5534 374.1949 3.390323 -9.376883 13.50944 2.920907 9.24892 3.288878 -0 13.33737 -0 -6.493478 -13.21167 -5.441755 -2.307769 -7.76289 -8.18601 -0 38.45011 -0 -6.110619 -7.565831 21.4327 -1.904548 0.9625405 4.674714 0.5327073 7.565266 -3.435859 3.439684 26.11245 3.044098 0.9119598 -15.53517 7.115061 -0.5562463 -16.13703 9.517393 86.60783 22.68547 -10.09153 -0 0 12.49695 -17.40118 8.511638 9.026066 4.929847 -16.11089 -2.579107 -91.40187 26.74611 15.12055 0 0 -8.625674 1.062699 12.63978 10.91031
